# xmcd
#
# Track frame offsets: 
#        150
#        13051
#        26443
#        36853
#        50025
#        63446
#        70900
#        84683
#        96808
#        108628
#        121480
#        137427
#        153026
#        164493
#        177158
#        190745
#        202827
#
# Disc length: 2863 seconds
#
# Revision: 0
# Processed by: cddbd v1.5.2PL0 Copyright (c) Steve Scherf et al.
# Submitted via: ExactAudioCopy v0.95b4
#
DISCID=e20b2d11
DTITLE=Roosevelt Sykes - Chicago Boogie
DYEAR=2004
DGENRE=Chicago
TTITLE0=Drivin' Wheel
TTITLE1=West Helena Blues
TTITLE2=Wonderin' Blues
TTITLE3=Monkey Face Blues
TTITLE4=Rock It
TTITLE5=Chicago Boogie
TTITLE6=Security Blues
TTITLE7=Soon Forgotten
TTITLE8=Green Onion Top
TTITLE9=Mail Box Blues
TTITLE10=44 Blues
TTITLE11=Complete This Order
TTITLE12=Blues N' Boogie
TTITLE13=Winter Time Blues
TTITLE14=Rock It (alt)
TTITLE15=My Resolution
TTITLE16=Kickin' Motor Scooter (alt)
EXTD=
EXTT0=
EXTT1=
EXTT2=
EXTT3=
EXTT4=
EXTT5=
EXTT6=
EXTT7=
EXTT8=
EXTT9=
EXTT10=
EXTT11=
EXTT12=
EXTT13=
EXTT14=
EXTT15=
EXTT16=
PLAYORDER=
